<?xml version="1.0" standalone="no"?><!DOCTYPE svg PUBLIC "-//W3C//DTD SVG 1.1//EN" "http://www.w3.org/Graphics/SVG/1.1/DTD/svg11.dtd"><svg t="1673175694796" class="icon" viewBox="0 0 1024 1024" version="1.1" xmlns="http://www.w3.org/2000/svg" p-id="1003" xmlns:xlink="http://www.w3.org/1999/xlink" width="200" height="200"><path d="M880.21 276.92h40c12.99 0 23.51 10.2 23.51 22.79v531.54c0 12.59-10.53 22.79-23.51 22.79H103.79c-12.99 0-23.51-10.2-23.51-22.79V299.72c0-12.59 10.53-22.79 23.51-22.79h776.42z" fill="#FFD4A1" p-id="1004"></path><path d="M920.21 865.15H103.79c-19.09 0-34.62-15.21-34.62-33.9V299.72c0-18.69 15.53-33.9 34.62-33.9H920.2c19.09 0 34.62 15.21 34.62 33.9v531.54c0 18.69-15.53 33.89-34.61 33.89zM103.79 288.03c-6.84 0-12.41 5.24-12.41 11.69v531.54c0 6.45 5.57 11.69 12.41 11.69H920.2c6.84 0 12.41-5.24 12.41-11.69V299.72c0-6.45-5.57-11.69-12.41-11.69H103.79z" fill="#6F6EA9" p-id="1005"></path><path d="M148.06 751.35c-5.39 0-9.76-4.99-9.76-11.14V192.9c0-12.31 8.74-22.28 19.53-22.28h292.91c32.35 0 58.58 29.93 58.58 66.85v513.87" fill="#F5F5FF" p-id="1006"></path><path d="M148.06 762.45c-11.51 0-20.87-9.98-20.87-22.25V192.9c0-18.41 13.74-33.39 30.63-33.39h292.91c38.42 0 69.69 34.97 69.69 77.96v513.87h-22.21V237.47c0-30.74-21.3-55.75-47.48-55.75H157.82c-4.57 0-8.42 5.12-8.42 11.18v547.3c0 0.33 0.09 0.53 0.12 0.58-0.13-0.18-0.7-0.54-1.46-0.54v22.21z" fill="#6F6EA9" p-id="1007"></path><path d="M518.95 751.32c-5.47 0-9.91-4.99-9.91-11.16V236.89c0-36.97 26.63-66.94 59.47-66.94h297.37c10.95 0 19.82 9.99 19.82 22.31v547.9c0 6.16-4.44 11.16-9.91 11.16" fill="#F5F5FF" p-id="1008"></path><path d="M875.79 762.42v-22.21c-0.68 0-1.19 0.32-1.31 0.48 0 0 0.12-0.17 0.12-0.53v-547.9c0-6.08-3.99-11.21-8.72-11.21H568.51c-26.67 0-48.37 25.05-48.37 55.83v503.27c0 0.36 0.11 0.53 0.11 0.53-0.11-0.16-0.63-0.48-1.31-0.48v22.21c-11.59 0-21.02-9.99-21.02-22.26V236.89c0-43.03 31.66-78.04 70.58-78.04h297.37c17.05 0 30.93 14.99 30.93 33.42v547.9c0.01 12.27-9.42 22.25-21.01 22.25z" fill="#6F6EA9" p-id="1009"></path><path d="M656.63 388.18h-54.46c-18.37 0-33.31-14.94-33.31-33.31v-72.75c0-18.37 14.94-33.31 33.31-33.31h54.46c18.37 0 33.31 14.94 33.31 33.31v72.75c0 18.37-14.94 33.31-33.31 33.31z m-54.46-117.16c-6.12 0-11.1 4.98-11.1 11.1v72.75c0 6.12 4.98 11.1 11.1 11.1h54.46c6.12 0 11.1-4.98 11.1-11.1v-72.75c0-6.12-4.98-11.1-11.1-11.1h-54.46zM815.31 293.28h-81.66c-6.13 0-11.1-4.97-11.1-11.1s4.97-11.1 11.1-11.1h81.66c6.13 0 11.1 4.97 11.1 11.1s-4.97 11.1-11.1 11.1zM815.31 361.24h-81.66c-6.13 0-11.1-4.97-11.1-11.1s4.97-11.1 11.1-11.1h81.66c6.13 0 11.1 4.97 11.1 11.1s-4.97 11.1-11.1 11.1zM712.3 648.18H591.07c-6.13 0-11.1-4.97-11.1-11.1s4.97-11.1 11.1-11.1H712.3c6.13 0 11.1 4.97 11.1 11.1s-4.97 11.1-11.1 11.1zM825.96 648.18h-56.23c-6.13 0-11.1-4.97-11.1-11.1s4.97-11.1 11.1-11.1h56.23c6.13 0 11.1 4.97 11.1 11.1s-4.97 11.1-11.1 11.1zM656.76 462.86h-65.69c-6.13 0-11.1-4.97-11.1-11.1s4.97-11.1 11.1-11.1h65.69c6.13 0 11.1 4.97 11.1 11.1 0.01 6.13-4.97 11.1-11.1 11.1zM808.75 462.86h-97.29c-6.13 0-11.1-4.97-11.1-11.1s4.97-11.1 11.1-11.1h97.29c6.13 0 11.1 4.97 11.1 11.1s-4.97 11.1-11.1 11.1z" fill="#8276DD" p-id="1010"></path><path d="M436.39 420.73l-96.11 2.78-2.08-87.99h95.71z" fill="#B7B3FF" p-id="1011"></path><path d="M756.81 572.2H591.07c-6.13 0-11.1-4.97-11.1-11.1s4.97-11.1 11.1-11.1h165.74c6.13 0 11.1 4.97 11.1 11.1s-4.97 11.1-11.1 11.1z" fill="#8276DD" p-id="1012"></path><path d="M808.6 561.1m-11.1 0a11.1 11.1 0 1 0 22.2 0 11.1 11.1 0 1 0-22.2 0Z" fill="#8276DD" p-id="1013"></path><path d="M398.66 441.55H367.6c-27.84 0-48.83-14.29-48.83-33.24v-144.6c0-6.13 4.97-11.1 11.1-11.1s11.1 4.97 11.1 11.1v144.61c0 3.79 10.37 11.03 26.62 11.03h31.06c16.26 0 26.62-7.24 26.62-11.03V263.71c0-6.13 4.97-11.1 11.1-11.1s11.1 4.97 11.1 11.1v144.61c0.03 18.95-20.97 33.23-48.81 33.23z" fill="#6F6EA9" p-id="1014"></path><path d="M208.72 399.29l63.91 53.37-2.47 56.02h-61.44z" fill="#B7B3FF" p-id="1015"></path><path d="M272.63 368.1l-60.44-48.97-0.99-42.21 61.43-6.76z" fill="#B7B3FF" p-id="1016"></path><path d="M258.09 522.68h-34.83c-14.14 0-25.64-11.5-25.64-25.64V311.56c0-31.85 25.91-57.76 57.76-57.76h2.71c14.14 0 25.64 11.5 25.64 25.64v217.6c0.01 14.14-11.5 25.64-25.64 25.64zM255.38 276c-19.61 0-35.56 15.95-35.56 35.56v185.48c0 1.9 1.54 3.44 3.44 3.44h34.83c1.89 0 3.44-1.54 3.44-3.44v-217.6c0-1.89-1.54-3.44-3.44-3.44h-2.71z" fill="#6F6EA9" p-id="1017"></path><path d="M283.74 496.41h-22.21v170.68c0 6.13 4.97 11.1 11.1 11.1s11.1-4.97 11.1-11.1V496.41z" fill="#6F6EA9" p-id="1018"></path><path d="M394.24 431.9h-22.21v236.64c0 6.13 4.97 11.1 11.1 11.1s11.1-4.97 11.1-11.1V431.9z" fill="#6F6EA9" p-id="1019"></path><path d="M383.13 248.36c-6.13 0-11.1 4.97-11.1 11.1v117.43c0 6.13 4.97 11.1 11.1 11.1s11.1-4.97 11.1-11.1V259.46c0.01-6.13-4.96-11.1-11.1-11.1z" fill="#6F6EA9" p-id="1020"></path><path d="M138.35 799.51V731.2h307.48c38.02 0 69.05 30.5 69.92 68.31h-377.4z" fill="#B7B3FF" p-id="1021"></path><path d="M445.84 742.3c28.07 0 51.62 19.76 57.45 46.11H149.46V742.3h296.38m0-22.21H127.25v90.52h399.63v-9.48c0-44.76-36.28-81.04-81.04-81.04z" fill="#6F6EA9" p-id="1022"></path><path d="M508.16 799.51c0.87-37.82 31.9-68.31 69.92-68.31h307.57v68.31H508.16z" fill="#B7B3FF" p-id="1023"></path><path d="M874.54 742.3v46.11H520.63c5.83-26.34 29.37-46.11 57.45-46.11h296.46m22.21-22.21H578.08c-44.76 0-81.04 36.28-81.04 81.04v9.48h399.71v-90.52z" fill="#6F6EA9" p-id="1024"></path></svg>